<mxfile host="app.diagrams.net" modified="2024-04-23T00:37:37.844Z" agent="Mozilla/5.0 (Windows NT 10.0; Win64; x64) AppleWebKit/537.36 (KHTML, like Gecko) Chrome/123.0.0.0 Safari/537.36" etag="dRJRVe8WBnwGY6w0DGnP" version="24.2.7" type="github">
  <diagram name="PÃ¡gina-1" id="2h4HV8mi8eanNvGswaAb">
    <mxGraphModel dx="880" dy="1637" grid="1" gridSize="10" guides="1" tooltips="1" connect="1" arrows="1" fold="1" page="1" pageScale="1" pageWidth="827" pageHeight="1169" math="0" shadow="0">
      <root>
        <mxCell id="0" />
        <mxCell id="1" parent="0" />
        <mxCell id="9sWVaNSQ-3PIY_JVM591-1" value="" style="whiteSpace=wrap;html=1;aspect=fixed;" vertex="1" parent="1">
          <mxGeometry x="150" y="-980" width="850" height="850" as="geometry" />
        </mxCell>
        <mxCell id="9sWVaNSQ-3PIY_JVM591-2" value="&lt;font style=&quot;vertical-align: inherit;&quot;&gt;&lt;font style=&quot;vertical-align: inherit;&quot;&gt;TITULO&lt;/font&gt;&lt;/font&gt;" style="rounded=0;whiteSpace=wrap;html=1;" vertex="1" parent="1">
          <mxGeometry x="491.25" y="-810" width="167.5" height="30" as="geometry" />
        </mxCell>
        <mxCell id="9sWVaNSQ-3PIY_JVM591-3" value="&lt;font style=&quot;vertical-align: inherit;&quot;&gt;&lt;font style=&quot;vertical-align: inherit;&quot;&gt;FOTO&lt;/font&gt;&lt;/font&gt;" style="whiteSpace=wrap;html=1;aspect=fixed;" vertex="1" parent="1">
          <mxGeometry x="515" y="-960" width="120" height="120" as="geometry" />
        </mxCell>
        <mxCell id="9sWVaNSQ-3PIY_JVM591-4" value="&lt;font style=&quot;vertical-align: inherit;&quot;&gt;&lt;font style=&quot;vertical-align: inherit;&quot;&gt;TEXTO&lt;/font&gt;&lt;/font&gt;" style="whiteSpace=wrap;html=1;aspect=fixed;" vertex="1" parent="1">
          <mxGeometry x="480" y="-750" width="190" height="190" as="geometry" />
        </mxCell>
        <mxCell id="9sWVaNSQ-3PIY_JVM591-9" value="&lt;font style=&quot;vertical-align: inherit;&quot;&gt;&lt;font style=&quot;vertical-align: inherit;&quot;&gt;FOTO&lt;/font&gt;&lt;/font&gt;" style="whiteSpace=wrap;html=1;aspect=fixed;" vertex="1" parent="1">
          <mxGeometry x="510" y="-520" width="130" height="130" as="geometry" />
        </mxCell>
        <mxCell id="9sWVaNSQ-3PIY_JVM591-10" value="&lt;font style=&quot;vertical-align: inherit;&quot;&gt;&lt;font style=&quot;vertical-align: inherit;&quot;&gt;CONTATOS&lt;/font&gt;&lt;/font&gt;" style="whiteSpace=wrap;html=1;aspect=fixed;" vertex="1" parent="1">
          <mxGeometry x="485" y="-370" width="180" height="180" as="geometry" />
        </mxCell>
      </root>
    </mxGraphModel>
  </diagram>
</mxfile>
